# xmcd CD database file
#
# Track frame offsets:
#	150
#	15301
#	27727
#	42707
#	57885
#	71499
#	84720
#	99127
#	114793
#	129279
#	142728
#	155098
#	169150
#	183553
#	199778
#	224653
#	237868
#	253225
#	266499
#	281702
#	294894
#	309497
#	320708
#
# Disc length: 4438 seconds
#
# Revision: 0
# Processed by: cddbd v1.4PL0 Copyright (c) Steve Scherf et al.
# Submitted via: CDex 1.50Beta5
#
DISCID=52115417
DTITLE=Duke Ellington - Stomp, Look and Listen!
DYEAR=1900
DGENRE=Jazz
TTITLE0=Jack the Bear
TTITLE1=Ko-Ko
TTITLE2=Concerto for Cootie
TTITLE3=Dusk
TTITLE4=Harlem Air-Shaft
TTITLE5=Chelsea Bridge
TTITLE6=Perdido
TTITLE7=What Am I Here For?
TTITLE8=Someone
TTITLE9=Main Stem
TTITLE10=I ain't Got Nothin' But The Blues
TTITLE11=Times A Wastin' (Things Ain't What They Used to Be)
TTITLE12=A Gathering In A Clearing
TTITLE13=Esquire Swank
TTITLE14=Happy-Go-Lucky Local
TTITLE15=Hy'a Sue
TTITLE16=Stomp, Look and Listen
TTITLE17=Air Conditioned Jungle
TTITLE18=On A Turquoise Cloud
TTITLE19=The Clothed Woman
TTITLE20=New York City Blues
TTITLE21=Dancers In Love
TTITLE22=Suddenly It Jumped
EXTD=
EXTT0=
EXTT1=
EXTT2=
EXTT3=
EXTT4=
EXTT5=
EXTT6=
EXTT7=
EXTT8=
EXTT9=
EXTT10=
EXTT11=
EXTT12=
EXTT13=
EXTT14=
EXTT15=
EXTT16=
EXTT17=
EXTT18=
EXTT19=
EXTT20=
EXTT21=
EXTT22=
PLAYORDER=
